<?xml version="1.0" encoding="utf-8"?>
<!-- Generator: Adobe Illustrator 24.0.2, SVG Export Plug-In . SVG Version: 6.00 Build 0)  -->
<svg version="1.1" id="Capa_1" xmlns="http://www.w3.org/2000/svg" xmlns:xlink="http://www.w3.org/1999/xlink" x="0px" y="0px"
	 viewBox="0 0 215 70.9" style="enable-background:new 0 0 215 70.9;" xml:space="preserve">
<style type="text/css">
	.st0{enable-background:new    ;}
	.st1{fill:#1D1D1B;}
	.st2{fill:none;}
</style>
<title>logo</title>
<g class="st0">
	<path class="st1" d="M101.1,51.8H90.1c-1.6,0-2.7-0.4-3.4-1.1c-0.7-0.7-1-1.8-1-3.4V20.5c0-1.6,0.3-2.7,1-3.4c0.7-0.7,1.8-1,3.4-1
		h11.6c1.7,0,3.2,0.1,4.4,0.3c1.3,0.2,2.4,0.6,3.4,1.2c0.8,0.5,1.6,1.1,2.2,1.9c0.7,0.8,1.1,1.6,1.5,2.6c0.3,0.9,0.5,1.9,0.5,3
		c0,3.6-1.8,6.2-5.4,7.9c4.7,1.5,7.1,4.4,7.1,8.7c0,2-0.5,3.8-1.5,5.4c-1,1.6-2.4,2.8-4.2,3.6c-1.1,0.5-2.3,0.8-3.8,1
		C104.6,51.8,102.9,51.8,101.1,51.8z M93,21.5v9.3h6.6c1.8,0,3.2-0.2,4.2-0.5c1-0.3,1.7-1,2.3-2c0.4-0.7,0.6-1.4,0.6-2.3
		c0-1.8-0.6-3-1.9-3.6c-1.3-0.6-3.2-0.9-5.9-0.9H93z M100.5,36H93v10.4h7.8c4.9,0,7.3-1.8,7.3-5.3c0-1.8-0.6-3.1-1.9-3.9
		C104.9,36.4,103,36,100.5,36z"/>
</g>
<g class="st0">
	<path class="st1" d="M127.9,42.8v5.6c0,1.4-0.3,2.4-1,3c-0.6,0.7-1.4,1-2.4,1c-1,0-1.8-0.3-2.4-1c-0.6-0.7-0.9-1.7-0.9-3V29.9
		c0-3,1.1-4.5,3.2-4.5c1.1,0,1.9,0.4,2.4,1c0.5,0.7,0.8,1.7,0.8,3.1c0.8-1.4,1.6-2.4,2.5-3.1c0.8-0.7,2-1,3.4-1c1.4,0,2.8,0.4,4.1,1
		c1.3,0.7,2,1.6,2,2.8c0,0.8-0.3,1.5-0.8,2c-0.6,0.5-1.2,0.8-1.8,0.8c-0.2,0-0.8-0.2-1.8-0.5c-0.9-0.3-1.8-0.5-2.5-0.5
		c-1,0-1.8,0.3-2.4,0.8c-0.6,0.5-1.1,1.3-1.4,2.3c-0.3,1-0.6,2.2-0.7,3.6C128,39.1,127.9,40.8,127.9,42.8z"/>
</g>
<g class="st0">
	<path class="st1" d="M159.2,48.7v-0.9c-0.8,1-1.6,1.9-2.5,2.5s-1.8,1.2-2.9,1.5c-1,0.3-2.2,0.5-3.6,0.5c-1.6,0-3.1-0.3-4.3-1
		s-2.3-1.6-3-2.8c-0.8-1.4-1.2-3.5-1.2-6.1V29.3c0-1.3,0.3-2.3,0.9-3c0.6-0.7,1.4-1,2.4-1c1,0,1.8,0.3,2.4,1c0.6,0.7,0.9,1.7,0.9,3
		V40c0,1.5,0.1,2.8,0.4,3.9c0.3,1.1,0.7,1.9,1.4,2.5c0.7,0.6,1.6,0.9,2.7,0.9c1.1,0,2.2-0.3,3.2-1c1-0.7,1.7-1.5,2.2-2.6
		c0.4-0.9,0.6-3,0.6-6.2v-8.1c0-1.3,0.3-2.3,0.9-3c0.6-0.7,1.4-1,2.4-1c1,0,1.8,0.3,2.4,1c0.6,0.7,0.9,1.7,0.9,3v19.3
		c0,1.3-0.3,2.2-0.9,2.9s-1.3,1-2.2,1c-0.9,0-1.7-0.3-2.3-1C159.5,50.8,159.2,49.9,159.2,48.7z"/>
	<path class="st1" d="M178.3,29.1v0.8c1.3-1.5,2.6-2.7,3.9-3.4c1.4-0.7,2.9-1.1,4.6-1.1c2.1,0,3.9,0.5,5.7,1.6
		c1.7,1.1,3.1,2.6,4.1,4.6c1,2,1.5,4.4,1.5,7.2c0,2.1-0.3,3.9-0.9,5.7c-0.6,1.7-1.4,3.2-2.4,4.3c-1,1.2-2.2,2.1-3.6,2.7
		c-1.4,0.6-2.9,0.9-4.4,0.9c-1.9,0-3.5-0.4-4.8-1.1s-2.5-1.9-3.7-3.4v10c0,2.9-1.1,4.4-3.2,4.4c-1.3,0-2.1-0.4-2.5-1.1
		c-0.4-0.8-0.6-1.9-0.6-3.3V29.1c0-1.3,0.3-2.2,0.8-2.8c0.6-0.6,1.3-0.9,2.3-0.9c0.9,0,1.7,0.3,2.3,1C178,27,178.3,27.9,178.3,29.1z
		 M191.3,38.8c0-1.8-0.3-3.3-0.8-4.5c-0.5-1.3-1.3-2.2-2.2-2.9c-1-0.7-2-1-3.2-1c-1.8,0-3.4,0.7-4.7,2.2c-1.3,1.4-1.9,3.6-1.9,6.4
		c0,2.7,0.6,4.7,1.9,6.2c1.3,1.5,2.8,2.2,4.7,2.2c1.1,0,2.1-0.3,3.1-1c0.9-0.6,1.7-1.6,2.3-2.9C191.1,42.2,191.3,40.6,191.3,38.8z"
		/>
	<path class="st1" d="M206.8,22.3c-0.9,0-1.7-0.3-2.4-0.9c-0.7-0.6-1-1.4-1-2.4c0-0.9,0.3-1.7,1-2.3c0.7-0.6,1.5-0.9,2.4-0.9
		c0.9,0,1.6,0.3,2.3,0.8c0.7,0.6,1,1.4,1,2.4c0,1-0.3,1.8-1,2.4C208.4,22,207.6,22.3,206.8,22.3z M210,29.1v19.3c0,1.3-0.3,2.3-1,3
		s-1.4,1-2.4,1s-1.8-0.4-2.4-1s-0.9-1.7-0.9-3V29.3c0-1.3,0.3-2.3,0.9-3c0.6-0.7,1.4-1,2.4-1s1.8,0.3,2.4,1
		C209.7,27,210,28,210,29.1z"/>
</g>
<path class="st1" d="M56.7,20.1l-7.4,7.3L37.2,39.6c-1.4,1.4-3.6,1.4-5,0l-2.3-2.3c-1.4-1.4-1.4-3.6,0-5c0,0,0,0,0,0L42,20.1
	l-5.8-5.8L10.9,39.6c-1.4,1.4-3.6,1.4-5,0l-2.3-2.3c-1.4-1.4-1.4-3.6,0-5c0,0,0,0,0,0L28.8,6.9c4-4,10.6-4,14.6,0c0,0,0,0,0,0
	l5.9,5.9c1.3,1.3,2.2,2.9,2.7,4.6C53.7,17.9,55.4,18.8,56.7,20.1z"/>
<path class="st1" d="M67.3,35.8L37.2,65.9c-1.4,1.4-3.6,1.4-5,0c0,0,0,0,0,0L27.4,61L16.8,50.4c-1.4-1.4-1.4-3.6,0-5c0,0,0,0,0,0
	l2.3-2.3c1.4-1.4,3.6-1.4,5,0c0,0,0,0,0,0l10.7,10.7L60,28.4c1.4-1.4,3.6-1.4,5,0c0,0,0,0,0,0l2.3,2.3
	C68.7,32.1,68.7,34.4,67.3,35.8C67.3,35.8,67.3,35.8,67.3,35.8z"/>
<rect y="0" class="st2" width="70.9" height="70.9"/>
<rect y="35.4" class="st2" width="215" height="35.4"/>
<rect y="52" class="st2" width="215" height="14.9"/>
<rect y="4" class="st2" width="215" height="14.9"/>
</svg>
